<svg id="svg_6" xmlns="http://www.w3.org/2000/svg" xmlns:xlink="http://www.w3.org/1999/xlink" version="1.1" width="1458" height="327" style="background: rgb(251, 251, 251); visibility: visible;" viewBox="0 0 1458 327"><defs id="defs_7"><linearGradient id="linearGradient_17" x1="0" y1="0" x2="0" y2="1"><stop id="stop_18" offset="0" stop-color="rgb(255, 255, 255)"></stop><stop id="stop_19" offset="1" stop-color="rgb(204, 204, 204)"></stop></linearGradient><marker id="marker_2" orient="auto" refX="6" refY="0" viewBox="-7 -7 14 14" markerWidth="7" markerHeight="7" markerUnits="userSpaceOnUse"><path id="path_3" fill="white" stroke="none" d="M6,0A6,6,0,1,1,-6,0A6,6,0,1,1,6,0"></path></marker></defs><g id="g_8"><g id="minder1" text-rendering="geometricPrecision"><g id="minder_connect_group1"><path id="path_214" fill="none" stroke="rgb(115, 161, 191)" stroke-width="1" d="M320.798,114.5L372.5,62.5"></path><path id="path_223" fill="none" stroke="rgb(115, 161, 191)" stroke-width="1" d="M109.5,200.5h90L249.5,250.5"></path><path id="path_232" fill="none" stroke="rgb(115, 161, 191)" stroke-width="1" d="M109.5,200.5h422L581.5,150.5"></path><path id="path_259" fill="none" stroke="rgb(115, 161, 191)" stroke-width="1" d="M109.5,200.5h289L448.5,250.5"></path><path id="path_330" fill="none" stroke="rgb(115, 161, 191)" stroke-width="1" d="M109.5,200.5h70L229.5,150.5"></path><path id="path_343" fill="none" stroke="rgb(115, 161, 191)" stroke-width="1" d="M109.5,200.5h627L786.5,150.5"></path><path id="path_356" fill="none" stroke="rgb(115, 161, 191)" stroke-width="1" d="M109.5,200.5h507L666.5,250.5"></path><path id="path_437" fill="none" stroke="rgb(115, 161, 191)" stroke-width="1" d="M849.148,114.5L901.5,62.5"></path><path id="path_449" fill="none" stroke="rgb(115, 161, 191)" stroke-width="1" d="M109.5,200.5h954L1093.5,230.5"></path><path id="path_451" fill="none" stroke="rgb(115, 161, 191)" stroke-width="1" d="M1158.8220000000001,194.5L1248.5,102.5"></path><path id="path_453" fill="none" stroke="rgb(115, 161, 191)" stroke-width="1" d="M1158.8220000000001,194.5L1283.5,65.5"></path><path id="path_455" fill="none" stroke="rgb(115, 161, 191)" stroke-width="1" d="M1158.8220000000001,194.5L1314.5,31.5"></path><path id="path_457" fill="none" stroke="rgb(115, 161, 191)" stroke-width="1" d="M1158.8220000000001,194.5L1257.5,290.5"></path><path id="path_506" fill="none" stroke="rgb(115, 161, 191)" stroke-width="1" d="M109.5,200.5h737L896.5,250.5"></path></g><g id="minder_node1"><path id="path_212" fill="rgba(0, 0, 0, .25)" stroke="none" d="M60.5,158.5h37a47,47,0,0,1,47,47v0a47,47,0,0,1,-47,47h-37a47,47,0,0,1,-47,-47v0a47,47,0,0,1,47,-47z" display="none"></path><path id="node_outline1" fill="rgb(115, 161, 191)" stroke="rgb(57, 80, 96)" d="M25.5,180.5h79a5,5,0,0,1,5,5v30a5,5,0,0,1,-5,5h-79a5,5,0,0,1,-5,-5v-30a5,5,0,0,1,5,-5z" stroke-width="3"></path><g id="node_text1" fill="white"><text id="text_22" text-rendering="inherit" font-size="16" dy=".8em" y="190.09999990463257" x="44.5">EPUB</text></g></g><g id="g_14" display="none"><path id="path_15" fill="rgba(0, 255, 0, .5)" stroke="none" d="M-54.5,277.5h20v28h-20z"></path><path id="path_16" fill="none" stroke="#0f0" d="M-54.5,277.5L-54.5,305.5" stroke-width="1"></path></g><g id="minder_node24" opacity="1"><path id="path_221" fill="rgba(0, 0, 0, .25)" stroke="none" d="M464,-16.5h0a84,84,0,0,1,84,84v0a84,84,0,0,1,-84,84h0a84,84,0,0,1,-84,-84v0a84,84,0,0,1,84,-84z" display="none"></path><g id="node_expander23" style="cursor: pointer;" display="none"><path id="path_219" fill="white" stroke="gray" d="M372.5,62.5A6,6,0,1,1,360.5,62.5A6,6,0,1,1,372.5,62.5"></path><path id="path_220" fill="none" stroke="gray" d="M362,62.5L371,62.5"></path></g><path id="node_outline24" fill="none" stroke="none" d="M377.5,45.5h159a5,5,0,0,1,5,5v24a5,5,0,0,1,-5,5h-159a5,5,0,0,1,-5,-5v-24a5,5,0,0,1,5,-5z" stroke-width="1"></path><g id="node_text24" fill="black"><text id="text_216" text-rendering="inherit" font-size="12" dy=".8em" y="54.700000047683716" x="382.5">container.xml</text></g><g id="g_432"><g id="g_433"><path id="path_434" fill="rgb(255, 179, 179)" stroke="none" d="M465.5,49.5h66v24h-66z"></path><text id="text_435" text-rendering="geometricPrecision" font-size="12" dy="5" x="473.5" fill="rgb(77, 0, 0)" y="61.5">声明文件</text></g></g></g><g id="minder_node25"><path id="path_230" fill="rgba(0, 0, 0, .25)" stroke="none" d="M258.5,255.5h156a5,5,0,0,1,5,5v26a5,5,0,0,1,-5,5h-156a5,5,0,0,1,-5,-5v-26a5,5,0,0,1,5,-5z" display="none"></path><g id="node_expander24" style="cursor: pointer;" display="none"><path id="path_228" fill="white" stroke="gray" d="M250.5502529144287,245.5502529144287A6,6,0,1,1,238.5502529144287,245.5502529144287A6,6,0,1,1,250.5502529144287,245.5502529144287"></path><path id="path_229" fill="none" stroke="gray"></path></g><path id="node_outline25" fill="rgb(238, 243, 246)" stroke="rgb(115, 161, 191)" d="M252.5,250.5h153a3,3,0,0,1,3,3v30a3,3,0,0,1,-3,3h-153a3,3,0,0,1,-3,-3v-30a3,3,0,0,1,3,-3z" stroke-width="1"></path><g id="node_text25" fill="black"><text id="text_225" text-rendering="inherit" font-size="14" dy=".8em" y="259.40000009536743" x="269.5">toc.ncx</text></g><g id="g_497"><g id="g_498"><path id="path_499" fill="rgb(255, 212, 179)" stroke="none" d="M322.5,255.5h66v24h-66z"></path><text id="text_500" text-rendering="geometricPrecision" font-size="12" dy="5" x="330.5" fill="rgb(77, 33, 0)" y="267.5">章节目录</text></g></g></g><g id="minder_node26"><path id="path_239" fill="rgba(0, 0, 0, .25)" stroke="none" d="M590.5,119.5h165a5,5,0,0,1,5,5v26a5,5,0,0,1,-5,5h-165a5,5,0,0,1,-5,-5v-26a5,5,0,0,1,5,-5z" display="none"></path><g id="node_expander25" style="cursor: pointer;" display="none"><path id="path_237" fill="white" stroke="gray" d="M582.5502529144287,155.4497470855713A6,6,0,1,1,570.5502529144287,155.4497470855713A6,6,0,1,1,582.5502529144287,155.4497470855713"></path><path id="path_238" fill="none" stroke="gray"></path></g><path id="node_outline26" fill="rgb(238, 243, 246)" stroke="rgb(115, 161, 191)" d="M584.5,114.5h159a3,3,0,0,1,3,3v30a3,3,0,0,1,-3,3h-159a3,3,0,0,1,-3,-3v-30a3,3,0,0,1,3,-3z" stroke-width="1"></path><g id="node_text26" fill="black"><text id="text_234" text-rendering="inherit" font-size="14" dy=".8em" y="123.40000009536743" x="601.5">title.xhtml</text></g><g id="g_501"><g id="g_502"><path id="path_503" fill="rgb(196, 179, 255)" stroke="none" d="M673.5,119.5h53v24h-53z"></path><text id="text_504" text-rendering="geometricPrecision" font-size="12" dy="5" x="681.5" fill="rgb(17, 0, 77)" y="131.5">标题页</text></g></g></g><g id="minder_node29"><path id="path_266" fill="rgba(0, 0, 0, .25)" stroke="none" d="M457.5,255.5h178a5,5,0,0,1,5,5v26a5,5,0,0,1,-5,5h-178a5,5,0,0,1,-5,-5v-26a5,5,0,0,1,5,-5z" display="none"></path><g id="node_expander28" style="cursor: pointer;" display="none"><path id="path_264" fill="white" stroke="gray" d="M449.5502529144287,245.5502529144287A6,6,0,1,1,437.5502529144287,245.5502529144287A6,6,0,1,1,449.5502529144287,245.5502529144287"></path><path id="path_265" fill="none" stroke="gray" d="M439.0502529144287,245.5502529144287L448.0502529144287,245.5502529144287"></path></g><path id="node_outline29" fill="rgb(238, 243, 246)" stroke="rgb(115, 161, 191)" d="M451.5,250.5h172a3,3,0,0,1,3,3v30a3,3,0,0,1,-3,3h-172a3,3,0,0,1,-3,-3v-30a3,3,0,0,1,3,-3z" stroke-width="1"></path><g id="node_text29" fill="black"><text id="text_261" text-rendering="inherit" font-size="14" dy=".8em" y="259.40000009536743" x="468.5">mimetype</text></g><g id="g_420"><g id="g_421"><path id="path_422" fill="rgb(255, 179, 179)" stroke="none" d="M540.5,255.5h66v24h-66z"></path><text id="text_423" text-rendering="geometricPrecision" font-size="12" dy="5" x="548.5" fill="rgb(77, 0, 0)" y="267.5">声明文件</text></g></g></g><g id="minder_node37"><path id="path_337" fill="rgba(0, 0, 0, .25)" stroke="none" d="M238.5,119.5h238a5,5,0,0,1,5,5v26a5,5,0,0,1,-5,5h-238a5,5,0,0,1,-5,-5v-26a5,5,0,0,1,5,-5z" display="none"></path><g id="node_expander36" style="cursor: pointer;"><path id="path_335" fill="white" stroke="gray" d="M230.5502529144287,155.4497470855713A6,6,0,1,1,218.5502529144287,155.4497470855713A6,6,0,1,1,230.5502529144287,155.4497470855713"></path><path id="path_336" fill="none" stroke="gray" d="M220.0502529144287,155.4497470855713L229.0502529144287,155.4497470855713"></path></g><path id="node_outline37" fill="rgb(238, 243, 246)" stroke="rgb(115, 161, 191)" d="M232.5,114.5h233a3,3,0,0,1,3,3v30a3,3,0,0,1,-3,3h-233a3,3,0,0,1,-3,-3v-30a3,3,0,0,1,3,-3z" stroke-width="1"></path><g id="node_text37" fill="black"><text id="text_332" text-rendering="inherit" font-size="14" dy=".8em" y="123.40000009536743" x="249.5">META-INF</text></g><g id="g_428"><g id="g_429"><path id="path_430" fill="rgb(255, 179, 179)" stroke="none" d="M323.5,119.5h66v24h-66z"></path><text id="text_431" text-rendering="geometricPrecision" font-size="12" dy="5" x="331.5" fill="rgb(77, 0, 0)" y="131.5">声明文件</text></g><g id="g_518"><path id="path_519" fill="rgb(179, 189, 255)" stroke="none" d="M394.5,119.5h54v24h-54z"></path><text id="text_520" text-rendering="geometricPrecision" font-size="12" dy="5" x="402.5" fill="rgb(0, 10, 77)" y="131.5">文件夹</text></g></g></g><g id="minder_node38"><path id="path_350" fill="rgba(0, 0, 0, .25)" stroke="none" d="M795.5,119.5h165a5,5,0,0,1,5,5v26a5,5,0,0,1,-5,5h-165a5,5,0,0,1,-5,-5v-26a5,5,0,0,1,5,-5z" display="none"></path><g id="node_expander37" style="cursor: pointer;"><path id="path_348" fill="white" stroke="gray" d="M787.5502529144287,155.4497470855713A6,6,0,1,1,775.5502529144287,155.4497470855713A6,6,0,1,1,787.5502529144287,155.4497470855713"></path><path id="path_349" fill="none" stroke="gray" d="M777.0502529144287,155.4497470855713L786.0502529144287,155.4497470855713"></path></g><path id="node_outline38" fill="rgb(238, 243, 246)" stroke="rgb(115, 161, 191)" d="M789.5,114.5h158a3,3,0,0,1,3,3v30a3,3,0,0,1,-3,3h-158a3,3,0,0,1,-3,-3v-30a3,3,0,0,1,3,-3z" stroke-width="1"></path><g id="node_text38" fill="black"><text id="text_345" text-rendering="inherit" font-size="14" dy=".8em" y="123.40000009536743" x="806.5">cover.xhtml</text></g><g id="g_351"><g id="g_352"><path id="path_353" fill="rgb(179, 229, 255)" stroke="none" d="M889.5,119.5h41v24h-41z"></path><text id="text_354" text-rendering="geometricPrecision" font-size="12" dy="5" x="897.5" fill="rgb(0, 50, 77)" y="131.5">封面</text></g></g></g><g id="minder_node39" opacity="1"><path id="path_363" fill="rgba(0, 0, 0, .25)" stroke="none" d="M675.5,255.5h191a5,5,0,0,1,5,5v26a5,5,0,0,1,-5,5h-191a5,5,0,0,1,-5,-5v-26a5,5,0,0,1,5,-5z" display="none"></path><g id="node_expander38" style="cursor: pointer;" display="none"><path id="path_361" fill="white" stroke="gray" d="M667.5502529144287,245.5502529144287A6,6,0,1,1,655.5502529144287,245.5502529144287A6,6,0,1,1,667.5502529144287,245.5502529144287"></path><path id="path_362" fill="none" stroke="gray" d="M657.0502529144287,245.5502529144287L666.0502529144287,245.5502529144287"></path></g><path id="node_outline39" fill="rgb(238, 243, 246)" stroke="rgb(115, 161, 191)" d="M669.5,250.5h184a3,3,0,0,1,3,3v30a3,3,0,0,1,-3,3h-184a3,3,0,0,1,-3,-3v-30a3,3,0,0,1,3,-3z" stroke-width="1"></path><g id="node_text39" fill="black"><text id="text_358" text-rendering="inherit" font-size="14" dy=".8em" y="259.40000009536743" x="686.5">content.opf</text></g><g id="g_404"><g id="g_405"><path id="path_406" fill="rgb(255, 244, 179)" stroke="none" d="M770.5,255.5h66v24h-66z"></path><text id="text_407" text-rendering="geometricPrecision" font-size="12" dy="5" x="778.5" fill="rgb(77, 65, 0)" y="267.5">资源文件</text></g></g></g><g id="minder_node44"><path id="path_521" fill="rgba(0, 0, 0, .25)" stroke="none" d="M982,-5.5h0a73,73,0,0,1,73,73v0a73,73,0,0,1,-73,73h0a73,73,0,0,1,-73,-73v0a73,73,0,0,1,73,-73z" display="none"></path><g id="node_expander43" style="cursor: pointer;" display="none"><path id="path_446" fill="white" stroke="gray" d="M901.5,62.5A6,6,0,1,1,889.5,62.5A6,6,0,1,1,901.5,62.5"></path><path id="path_447" fill="none" stroke="gray"></path></g><path id="node_outline44" fill="none" stroke="none" d="M906.5,45.5h138a5,5,0,0,1,5,5v24a5,5,0,0,1,-5,5h-138a5,5,0,0,1,-5,-5v-24a5,5,0,0,1,5,-5z"></path><g id="node_text44" fill="black"><text id="text_439" text-rendering="inherit" font-size="12" dy=".8em" y="54.700000047683716" x="911.5">cover.png</text></g><g id="g_440"><g id="g_441"><path id="path_442" fill="rgb(179, 255, 226)" stroke="none" d="M973.5,49.5h66v24h-66z"></path><text id="text_443" text-rendering="geometricPrecision" font-size="12" dy="5" x="981.5" fill="rgb(0, 77, 47)" y="61.5">封面图片</text></g></g></g><g id="minder_node45"><path id="path_496" fill="rgba(0, 0, 0, .25)" stroke="none" d="M1102.5,199.5h170a5,5,0,0,1,5,5v26a5,5,0,0,1,-5,5h-170a5,5,0,0,1,-5,-5v-26a5,5,0,0,1,5,-5z" display="none"></path><g id="node_expander48" style="cursor: pointer;"><path id="path_494" fill="white" stroke="gray" d="M1094.5502529144287,235.4497470855713A6,6,0,1,1,1082.5502529144287,235.4497470855713A6,6,0,1,1,1094.5502529144287,235.4497470855713"></path><path id="path_495" fill="none" stroke="gray" d="M1084.0502529144287,235.4497470855713L1093.0502529144287,235.4497470855713"></path></g><path id="node_outline49" fill="rgb(238, 243, 246)" stroke="rgb(115, 161, 191)" d="M1096.5,194.5h165a3,3,0,0,1,3,3v30a3,3,0,0,1,-3,3h-165a3,3,0,0,1,-3,-3v-30a3,3,0,0,1,3,-3z" stroke-width="1"></path><g id="node_text49" fill="black"><text id="text_467" text-rendering="inherit" font-size="14" dy=".8em" y="203.40000009536743" x="1113.5">Chapters</text></g><g id="g_472"><g id="g_473"><path id="path_474" fill="rgb(255, 179, 251)" stroke="none" d="M1178.5,199.5h66v24h-66z"></path><text id="text_475" text-rendering="geometricPrecision" font-size="12" dy="5" x="1186.5" fill="rgb(77, 0, 73)" y="211.5">章节内容</text></g></g></g><g id="minder_node46"><path id="path_522" fill="rgba(0, 0, 0, .25)" stroke="none" d="M1290,74h0a34,34,0,0,1,34,34v0a34,34,0,0,1,-34,34h0a34,34,0,0,1,-34,-34v0a34,34,0,0,1,34,-34z" display="none"></path><g id="node_expander44" style="cursor: pointer;" display="none"><path id="path_482" fill="white" stroke="gray" d="M1248.5,102.5A6,6,0,1,1,1236.5,102.5A6,6,0,1,1,1248.5,102.5"></path><path id="path_483" fill="none" stroke="gray"></path></g><path id="node_outline45" fill="none" stroke="none" d="M1253.5,91.5h61a5,5,0,0,1,5,5v12a5,5,0,0,1,-5,5h-61a5,5,0,0,1,-5,-5v-12a5,5,0,0,1,5,-5z"></path><g id="node_text45" fill="black"><text id="text_459" text-rendering="inherit" font-size="12" dy=".8em" y="94.70000004768372" x="1258.5">chapter1</text></g></g><g id="minder_node47"><path id="path_523" fill="rgba(0, 0, 0, .25)" stroke="none" d="M1325,37h0a34,34,0,0,1,34,34v0a34,34,0,0,1,-34,34h0a34,34,0,0,1,-34,-34v0a34,34,0,0,1,34,-34z" display="none"></path><g id="node_expander45" style="cursor: pointer;" display="none"><path id="path_485" fill="white" stroke="gray" d="M1283.5,65.5A6,6,0,1,1,1271.5,65.5A6,6,0,1,1,1283.5,65.5"></path><path id="path_486" fill="none" stroke="gray"></path></g><path id="node_outline46" fill="none" stroke="none" d="M1288.5,54.5h61a5,5,0,0,1,5,5v12a5,5,0,0,1,-5,5h-61a5,5,0,0,1,-5,-5v-12a5,5,0,0,1,5,-5z"></path><g id="node_text46" fill="black"><text id="text_461" text-rendering="inherit" font-size="12" dy=".8em" y="57.700000047683716" x="1293.5">chapter2</text></g></g><g id="minder_node48"><path id="path_524" fill="rgba(0, 0, 0, .25)" stroke="none" d="M1357.5,1h0a36,36,0,0,1,36,36v0a36,36,0,0,1,-36,36h0a36,36,0,0,1,-36,-36v0a36,36,0,0,1,36,-36z" display="none"></path><g id="node_expander46" style="cursor: pointer;" display="none"><path id="path_488" fill="white" stroke="gray" d="M1314.5,31.5A6,6,0,1,1,1302.5,31.5A6,6,0,1,1,1314.5,31.5"></path><path id="path_489" fill="none" stroke="gray"></path></g><path id="node_outline47" fill="none" stroke="none" d="M1319.5,20.5h63a5,5,0,0,1,5,5v12a5,5,0,0,1,-5,5h-63a5,5,0,0,1,-5,-5v-12a5,5,0,0,1,5,-5z"></path><g id="node_text47" fill="black"><text id="text_463" text-rendering="inherit" font-size="12" dy=".8em" y="23.700000047683716" x="1324.5">chapterN</text></g></g><g id="minder_node49"><path id="path_525" fill="rgba(0, 0, 0, .25)" stroke="none" d="M1355,205.5h0a90,90,0,0,1,90,90v0a90,90,0,0,1,-90,90h0a90,90,0,0,1,-90,-90v0a90,90,0,0,1,90,-90z" display="none"></path><g id="node_expander47" style="cursor: pointer;" display="none"><path id="path_491" fill="white" stroke="gray" d="M1257.5,290.5A6,6,0,1,1,1245.5,290.5A6,6,0,1,1,1257.5,290.5"></path><path id="path_492" fill="none" stroke="gray"></path></g><path id="node_outline48" fill="none" stroke="none" d="M1262.5,273.5h171a5,5,0,0,1,5,5v24a5,5,0,0,1,-5,5h-171a5,5,0,0,1,-5,-5v-24a5,5,0,0,1,5,-5z"></path><g id="node_text48" fill="black"><text id="text_465" text-rendering="inherit" font-size="12" dy=".8em" y="282.7000000476837" x="1267.5">stylesheet.css</text></g><g id="g_468"><g id="g_469"><path id="path_470" fill="rgb(236, 255, 179)" stroke="none" d="M1350.5,277.5h78v24h-78z"></path><text id="text_471" text-rendering="geometricPrecision" font-size="12" dy="5" x="1358.5" fill="rgb(57, 77, 0)" y="289.5">章节样式表</text></g></g></g><g id="g_12" display="none"><path id="path_13" fill="none" stroke="yellow" d="M350.5,250.5h96a5,5,0,0,1,5,5v18a5,5,0,0,1,-5,5h-96a5,5,0,0,1,-5,-5v-18a5,5,0,0,1,5,-5z" stroke-width="4"></path></g><g id="minder_node50"><path id="path_513" fill="rgba(0, 0, 0, .25)" stroke="none" d="M905.5,255.5h182a5,5,0,0,1,5,5v26a5,5,0,0,1,-5,5h-182a5,5,0,0,1,-5,-5v-26a5,5,0,0,1,5,-5z" display="none"></path><g id="node_expander49" style="cursor: pointer;" display="none"><path id="path_511" fill="white" stroke="gray" d="M897.5502529144287,245.5502529144287A6,6,0,1,1,885.5502529144287,245.5502529144287A6,6,0,1,1,897.5502529144287,245.5502529144287"></path><path id="path_512" fill="none" stroke="gray"></path></g><path id="node_outline50" fill="rgb(238, 243, 246)" stroke="rgb(115, 161, 191)" d="M899.5,250.5h174a3,3,0,0,1,3,3v30a3,3,0,0,1,-3,3h-174a3,3,0,0,1,-3,-3v-30a3,3,0,0,1,3,-3z" stroke-width="1"></path><g id="node_text50" fill="black"><text id="text_508" text-rendering="inherit" font-size="14" dy=".8em" y="259.40000009536743" x="916.5">catalog.html</text></g><g id="g_514"><g id="g_515"><path id="path_516" fill="rgb(179, 180, 255)" stroke="none" d="M1004.5,255.5h52v24h-52z"></path><text id="text_517" text-rendering="geometricPrecision" font-size="12" dy="5" x="1012.5" fill="rgb(0, 1, 77)" y="267.5">目录页</text></g></g></g></g></g></svg>
